# File created by Blade
# Date/Time:  Fri Jan 16 19:41:12 2015
# Frame Rate: 120.000 fps
#------------------------------------------------------
:FULLY-SPECIFIED
:DEGREES
983
root 18.046106 35.411469 -20.257781 12.364134 0.493839 -1.600834
Spine -33.027105 -0.259620 4.311723
Head 30.913984 -3.711347 -4.399604
LeftShoulder -32.773608 -56.564187 60.502882
LeftArm 75.608480 -30.363345 -38.523314
LeftForeArm -19.093413 0.000000 152.693695
LeftHand 1.425783 0.000000 4.947841
LeftHandThumb1 -26.253704 0.000000 33.147579
RightShoulder -0.937714 -35.668657 -1.106064
RightArm -1.930310 -66.295898 78.430745
RightForeArm -4.072129 -0.000000 131.458502
RightHand 6.902731 -0.000000 47.118323
RightHandThumb1 -24.326973 -0.000000 -32.862282
LeftUpLeg 0.317887 5.780692 2.531019
LeftLeg -6.965716 -0.000000 0.000000
LeftFoot -23.370350 28.876677 -17.297101
LeftToeBase 23.325397 -0.000000 -0.000000
RightUpLeg -0.488616 -7.472497 0.321590
RightLeg -4.564436 -0.000000 0.000000
RightFoot -23.212886 -21.718667 21.143681
RightToeBase 22.295438 -0.000000 -0.000000
984
root 18.045366 35.411599 -20.259385 12.396795 0.519997 -1.603974
Spine -33.019402 -0.258040 4.319568
Head 30.872489 -3.684681 -4.379057
LeftShoulder -32.766698 -56.528045 60.507734
LeftArm 75.537155 -30.351810 -38.519229
LeftForeArm -19.016001 0.000000 152.715765
LeftHand 1.316585 -0.000000 4.959567
LeftHandThumb1 -26.253704 0.000000 33.147579
RightShoulder -0.962961 -35.654883 -1.101477
RightArm -1.966763 -66.296814 78.453990
RightForeArm -4.028802 0.000000 131.467753
RightHand 6.885428 -0.000000 47.164257
RightHandThumb1 -24.326973 -0.000000 -32.862282
LeftUpLeg 0.275324 5.775269 2.536647
LeftLeg -6.961356 -0.000000 0.000000
LeftFoot -23.370377 28.862045 -17.290790
LeftToeBase 23.364469 -0.000000 -0.000000
RightUpLeg -0.517371 -7.484053 0.333697
RightLeg -4.571482 -0.000000 0.000000
RightFoot -23.209478 -21.724127 21.143376
RightToeBase 22.323863 -0.000000 -0.000000
985
root 18.044861 35.412315 -20.260823 12.413595 0.546404 -1.604041
Spine -32.985509 -0.294039 4.338743
Head 30.806897 -3.641881 -4.345234
LeftShoulder -32.851623 -56.443323 60.565700
LeftArm 75.514303 -30.309168 -38.540335
LeftForeArm -19.019419 0.000000 152.693845
LeftHand 1.288367 -0.000000 4.912613
LeftHandThumb1 -26.253704 0.000000 33.147579
RightShoulder -0.969091 -35.650156 -1.085318
RightArm -1.925493 -66.309906 78.365457
RightForeArm -4.027785 -0.000000 131.474371
RightHand 6.917113 0.000000 47.176134
RightHandThumb1 -24.326973 -0.000000 -32.862282
LeftUpLeg 0.249364 5.760125 2.541087
LeftLeg -6.957189 -0.000000 0.000000
LeftFoot -23.362650 28.851636 -17.283184
LeftToeBase 23.336343 -0.000000 -0.000000
RightUpLeg -0.528285 -7.495309 0.341523
RightLeg -4.583050 -0.000000 0.000000
RightFoot -23.211262 -21.736684 21.157726
RightToeBase 22.323745 -0.000000 -0.000000
986
root 18.043946 35.412582 -20.262905 12.441241 0.575238 -1.601673
Spine -32.972574 -0.309823 4.342149
Head 30.767279 -3.609852 -4.314568
LeftShoulder -32.894763 -56.422359 60.614360
LeftArm 75.439157 -30.266259 -38.554344
LeftForeArm -19.055745 -0.000000 152.681839
LeftHand 1.256170 -0.000000 4.862234
LeftHandThumb1 -26.253704 0.000000 33.147579
RightShoulder -0.991626 -35.653647 -1.071391
RightArm -1.891529 -66.303687 78.311008
RightForeArm -4.029841 -0.000000 131.483505
RightHand 6.933973 -0.000000 47.194689
RightHandThumb1 -24.326973 -0.000000 -32.862282
LeftUpLeg 0.214580 5.752775 2.541001
LeftLeg -6.960479 -0.000000 0.000000
LeftFoot -23.335478 28.850906 -17.260115
LeftToeBase 23.343905 -0.000000 -0.000000
RightUpLeg -0.552741 -7.508457 0.348858
RightLeg -4.585700 -0.000000 0.000000
RightFoot -23.209073 -21.745603 21.149113
RightToeBase 22.338841 -0.000000 -0.000000
